<svg width="54" height="54" viewBox="0 0 54 54" fill="none" xmlns="http://www.w3.org/2000/svg">
<path d="M27 0C12.112 0 0 12.112 0 27C0 41.888 12.112 54 27 54C41.888 54 54 41.888 54 27C54 12.112 41.888 0 27 0ZM27 52C13.215 52 2 40.785 2 27C2 13.215 13.215 2 27 2C40.785 2 52 13.215 52 27C52 40.785 40.785 52 27 52Z" fill="#C6C6C6"/>
<path d="M27.707 18.935C27.316 18.544 26.684 18.544 26.293 18.935L15.793 29.435C15.402 29.826 15.402 30.458 15.793 30.849C16.184 31.24 16.816 31.24 17.207 30.849L27 21.056L36.793 30.849C36.988 31.044 37.244 31.142 37.5 31.142C37.756 31.142 38.012 31.044 38.207 30.849C38.598 30.458 38.598 29.826 38.207 29.435L27.707 18.935Z" fill="#C6C6C6"/>
</svg>
